<svg id="Layer_1" data-name="Layer 1" xmlns="http://www.w3.org/2000/svg" xmlns:xlink="http://www.w3.org/1999/xlink" viewBox="0 0 1579.52 789.76"><defs><style>.cls-1{fill:url(#linear-gradient);}.cls-2{fill:url(#linear-gradient-2);}.cls-3{fill:url(#linear-gradient-3);}.cls-4{fill:url(#linear-gradient-4);}.cls-5{fill:url(#linear-gradient-5);}.cls-6{fill:url(#linear-gradient-6);}.cls-7{fill:url(#linear-gradient-7);}.cls-8{fill:url(#linear-gradient-8);}.cls-9{fill:url(#linear-gradient-9);}.cls-10{fill:url(#linear-gradient-10);}.cls-11{fill:url(#linear-gradient-11);}.cls-12{fill:url(#linear-gradient-12);}.cls-13{fill:url(#linear-gradient-13);}.cls-14{fill:url(#linear-gradient-14);}</style><linearGradient id="linear-gradient" x1="1034.43" y1="181.23" x2="388.48" y2="724.55" gradientUnits="userSpaceOnUse"><stop offset="0" stop-color="#0051b2"/><stop offset="0.31" stop-color="#006dcd"/><stop offset="0.76" stop-color="#008fef"/><stop offset="1" stop-color="#009cfc"/><stop offset="1" stop-color="#4584dc"/></linearGradient><linearGradient id="linear-gradient-2" x1="857.27" y1="-29.4" x2="211.32" y2="513.93" xlink:href="#linear-gradient"/><linearGradient id="linear-gradient-3" x1="1025.49" y1="170.59" x2="379.54" y2="713.92" xlink:href="#linear-gradient"/><linearGradient id="linear-gradient-4" x1="988.24" y1="126.3" x2="342.28" y2="669.63" xlink:href="#linear-gradient"/><linearGradient id="linear-gradient-5" x1="1013.89" y1="156.8" x2="367.93" y2="700.12" xlink:href="#linear-gradient"/><linearGradient id="linear-gradient-6" x1="1020.48" y1="164.64" x2="374.53" y2="707.96" xlink:href="#linear-gradient"/><linearGradient id="linear-gradient-7" x1="998.37" y1="138.36" x2="352.42" y2="681.68" xlink:href="#linear-gradient"/><linearGradient id="linear-gradient-8" x1="131.8" y1="259.68" x2="147.9" y2="611.84" gradientUnits="userSpaceOnUse"><stop offset="0" stop-color="#0051b2"/><stop offset="0.31" stop-color="#006dcd"/><stop offset="0.76" stop-color="#008fef"/><stop offset="1" stop-color="#009cfc"/></linearGradient><linearGradient id="linear-gradient-9" x1="327.94" y1="250.72" x2="344.04" y2="602.87" xlink:href="#linear-gradient-8"/><linearGradient id="linear-gradient-10" x1="456.38" y1="244.84" x2="472.48" y2="597" xlink:href="#linear-gradient-8"/><linearGradient id="linear-gradient-11" x1="905.41" y1="227.12" x2="921.51" y2="579.28" xlink:href="#linear-gradient-8"/><linearGradient id="linear-gradient-12" x1="1069.52" y1="219.62" x2="1085.62" y2="571.77" xlink:href="#linear-gradient-8"/><linearGradient id="linear-gradient-13" x1="1255.11" y1="211.13" x2="1271.21" y2="563.29" xlink:href="#linear-gradient-8"/><linearGradient id="linear-gradient-14" x1="1435.76" y1="202.88" x2="1451.86" y2="555.03" xlink:href="#linear-gradient-8"/></defs><path class="cls-1" d="M895.55,147.4l-14.74,19.66-9.48,12.28-31.24,41.08-17.55,22.81-83.2,109.52-29.48,39L826.4,558.82H766L678.61,433.14,637.55,487.2a108.13,108.13,0,0,1-29.14-43.53l40.37-53.35L620,348.89a106.18,106.18,0,0,1,36.51-34.05l23.87,34.41,23.17-30.9,93-122.51,13-16.85,24.22-31.59Z"/><path class="cls-2" d="M598.21,231.34l-15.39-22.08H522.61l37.13,53.28A209.57,209.57,0,0,1,598.21,231.34Z"/><path class="cls-3" d="M541.93,531.08,457.46,642.36h62.13l57-75A207.4,207.4,0,0,1,541.93,531.08Z"/><path class="cls-4" d="M725.66,260.43,708.45,282.9c-3.51,0-7,.7-10.53,1.05-63.54,5.62-113.38,58.63-113.38,123.57,0,59,41.42,108.82,96.89,121.46a42.16,42.16,0,0,0-19.67,18.6,147.93,147.93,0,0,1-100.4-140.06c0-80.74,64.25-145.68,144.28-147.79,1.41,0,2.46-.35,3.51-.35C714.77,259.38,720,260.08,725.66,260.43Z"/><path class="cls-5" d="M840.79,339.42h-27c-2.1-3.51-4.91-6.67-7.37-10.18a125.46,125.46,0,0,0-15.09-15.45l14-18.6a137.82,137.82,0,0,1,18.6,19.3A147.48,147.48,0,0,1,840.79,339.42Z"/><path class="cls-6" d="M887.48,339.42H855.19a170.2,170.2,0,0,0-21.07-33,175,175,0,0,0-21.06-21.76L831,261.13c9.47,8.08,18.6,16.5,26.33,26.33A183.21,183.21,0,0,1,887.48,339.42Z"/><path class="cls-7" d="M709.15,246.39a34.6,34.6,0,0,1,6,.7,170.45,170.45,0,0,1,19.31,1.41l20-26a61.4,61.4,0,0,0-7.73-1.75c-12.28-2.46-24.57-4.22-37.56-4.22-105.31,0-190.61,85.31-190.61,191,0,89.16,61.08,163.93,143.93,185,6.31,1.41,13,2.81,19.65,3.86A33.21,33.21,0,0,0,700.73,602a33.9,33.9,0,0,0,15.8-3.86,33.1,33.1,0,0,0,17.2-28.78c0-1.06-.35-2.11-.35-3.16a37.72,37.72,0,0,0-3.52-12.29,32.85,32.85,0,0,0-29.13-17.55,33.46,33.46,0,0,0-27.38,14.74A40.65,40.65,0,0,0,668.43,563a107.64,107.64,0,0,1-11.23-3.51c-63.18-21.77-108.82-81.79-108.82-152C548.38,318.71,620.34,246.39,709.15,246.39ZM685.63,566.54a15.46,15.46,0,0,1,10.18-11.94,20.91,20.91,0,0,1,4.92-.7,12.08,12.08,0,0,1,6.32,1.4,15.88,15.88,0,0,1,9.13,12.64v1.41a15.45,15.45,0,0,1-30.9,0A6.85,6.85,0,0,1,685.63,566.54Z"/><path class="cls-8" d="M39.33,438.23a92.51,92.51,0,0,1,11.23-33.61,88,88,0,0,1,23.24-26.5Q88.28,367,108.41,360.75t45.28-6.24q25.16,0,42.8,6.52t28.2,17.87a59.84,59.84,0,0,1,14.4,26.59,86.35,86.35,0,0,1,1.44,32.74,96.19,96.19,0,0,1-10.92,33.63,86.11,86.11,0,0,1-22.56,26.48q-14.15,11.13-34,17.38t-45,6.24Q103,522,85,515.43T56.15,497.57A60.52,60.52,0,0,1,41.08,471,81.78,81.78,0,0,1,39.33,438.23Zm40.16,0a48.87,48.87,0,0,0,.21,18,31.23,31.23,0,0,0,7.86,15.27q6.1,6.63,17,10.56T132.06,486q16.66,0,28.83-3.93a63.61,63.61,0,0,0,20.43-10.56,49.13,49.13,0,0,0,12.89-15.27,58,58,0,0,0,6.16-18,49,49,0,0,0-.21-18,31.33,31.33,0,0,0-7.87-15.27q-6.09-6.63-17-10.56t-27.52-3.92q-16.67,0-28.83,3.92a63.86,63.86,0,0,0-20.44,10.56,49.27,49.27,0,0,0-12.89,15.27A58.32,58.32,0,0,0,79.49,438.23Z"/><path class="cls-9" d="M248.5,517.54l26.07-158.6h95.95a96.66,96.66,0,0,1,25.81,3.1,44.11,44.11,0,0,1,18.43,9.67,34.86,34.86,0,0,1,10,16.86q2.86,10.29.67,24.79a52.57,52.57,0,0,1-13.92,29.14,56.39,56.39,0,0,1-10.86,8.89,79.27,79.27,0,0,1-11.44,6l21.43,60.17h-41l-18.94-53.31H296.3l-8.69,53.31Zm59.3-122.66-6.12,36.94H358.5a50,50,0,0,0,10.61-1,23,23,0,0,0,7.92-3.2,17.67,17.67,0,0,0,5.39-5.69,24.49,24.49,0,0,0,2.89-8.57c1.12-6.79-.05-11.57-3.46-14.33s-9.15-4.15-17.23-4.15Z"/><path class="cls-10" d="M458.71,358.94h39.11l-26.07,158.6H432.62Z"/><path class="cls-11" d="M998.1,358.94l-5.89,35.94H928.87L908.68,517.54H869.57l20.17-122.66H826.41l5.89-35.94Z"/><path class="cls-12" d="M1152.63,420.54,1147,454.6H1041.16l-4.46,27h112.1l-5.89,35.95H991.69l26.07-158.6h149.57l-5.91,35.94H1051l-4.25,25.66Z"/><path class="cls-13" d="M1337.38,502.39a76.1,76.1,0,0,1-18,9.83q-4.56,1.88-10.34,3.6c-3.87,1.15-8.12,2.18-12.78,3.11s-9.76,1.64-15.28,2.21-11.48.82-17.89.82q-25.17,0-43.11-6.53t-28.88-17.86A60.52,60.52,0,0,1,1176,471a81.78,81.78,0,0,1-1.75-32.74,92.51,92.51,0,0,1,11.23-33.61,88.15,88.15,0,0,1,23.24-26.5q14.48-11.12,34.61-17.37t45.29-6.24a127.93,127.93,0,0,1,16.19.95,122.77,122.77,0,0,1,13.82,2.43,85.43,85.43,0,0,1,11.48,3.48c3.47,1.32,6.53,2.66,9.22,4a70,70,0,0,1,16.05,10.73L1331,403a60.42,60.42,0,0,0-12.32-6.18,112.33,112.33,0,0,0-15.15-4.32,97,97,0,0,0-20.76-2q-16.66,0-28.83,3.92a63.81,63.81,0,0,0-20.43,10.56,49.13,49.13,0,0,0-12.89,15.27,58.09,58.09,0,0,0-6.16,18,49.08,49.08,0,0,0,.21,18,31.33,31.33,0,0,0,7.87,15.27q6.09,6.63,17,10.56T1267,486a99,99,0,0,0,20.25-1.94,114.17,114.17,0,0,0,15.77-4.37,95.1,95.1,0,0,0,14-6.41Z"/><path class="cls-14" d="M1501.93,358.94h39.13L1515,517.54h-39.12l10.34-62.94h-84.76l-10.36,62.94H1352L1378,358.94h39.13l-9.84,59.71h84.78Z"/></svg>